<?xml version="1.0" encoding="UTF-8"?>
<svg xmlns="http://www.w3.org/2000/svg" xmlns:xlink="http://www.w3.org/1999/xlink" viewBox="0 0 234 178">
  <defs>
    <style>
      .cls-1 {
        fill: #272525;
      }

      .cls-2 {
        fill: #d3c179;
      }

      .cls-3 {
        fill: #858198;
      }

      .cls-4 {
        fill: #a3a2bc;
      }

      .cls-5, .cls-6, .cls-7, .cls-8 {
        isolation: isolate;
      }

      .cls-6 {
        fill: url(#radial-gradient);
      }

      .cls-6, .cls-7, .cls-8 {
        mix-blend-mode: multiply;
      }

      .cls-9 {
        fill: none;
        stroke: #d3c179;
        stroke-linecap: round;
        stroke-miterlimit: 10;
        stroke-width: .5px;
      }

      .cls-10 {
        fill: #191f3e;
      }

      .cls-7 {
        fill: url(#radial-gradient-3);
      }

      .cls-8 {
        fill: url(#radial-gradient-2);
      }
    </style>
    <radialGradient id="radial-gradient" cx="-296.39" cy="382.62" fx="-296.39" fy="382.62" r="1" gradientTransform="translate(13684.3 17120.49) scale(45.84 -44.68)" gradientUnits="userSpaceOnUse">
      <stop offset="0" stop-color="#070707"/>
      <stop offset=".23" stop-color="#484848"/>
      <stop offset=".47" stop-color="#868585"/>
      <stop offset=".65" stop-color="#acabab"/>
      <stop offset=".74" stop-color="#bbbaba"/>
      <stop offset=".8" stop-color="#d1d1d1"/>
      <stop offset=".87" stop-color="#eaeaea"/>
      <stop offset=".94" stop-color="#f9f9f9"/>
      <stop offset="1" stop-color="#fff"/>
    </radialGradient>
    <radialGradient id="radial-gradient-2" cx="-297" cy="383.05" fx="-297" fy="383.05" r="1" gradientTransform="translate(15092.53 18942.65) scale(50.48 -49.2)" gradientUnits="userSpaceOnUse">
      <stop offset="0" stop-color="#070707"/>
      <stop offset=".23" stop-color="#484848"/>
      <stop offset=".47" stop-color="#868585"/>
      <stop offset=".65" stop-color="#acabab"/>
      <stop offset=".74" stop-color="#bbbaba"/>
      <stop offset=".8" stop-color="#d1d1d1"/>
      <stop offset=".87" stop-color="#eaeaea"/>
      <stop offset=".94" stop-color="#f9f9f9"/>
      <stop offset="1" stop-color="#fff"/>
    </radialGradient>
    <radialGradient id="radial-gradient-3" cx="-300.29" cy="385.37" fx="-300.29" fy="385.37" r="1" gradientTransform="translate(33761.77 42236.51) scale(111.91 -109.08)" gradientUnits="userSpaceOnUse">
      <stop offset="0" stop-color="#070707"/>
      <stop offset=".23" stop-color="#484848"/>
      <stop offset=".47" stop-color="#868585"/>
      <stop offset=".65" stop-color="#acabab"/>
      <stop offset=".74" stop-color="#bbbaba"/>
      <stop offset=".8" stop-color="#d1d1d1"/>
      <stop offset=".87" stop-color="#eaeaea"/>
      <stop offset=".94" stop-color="#f9f9f9"/>
      <stop offset="1" stop-color="#fff"/>
    </radialGradient>
  </defs>
  <g class="cls-5">
    <g id="Layer_1" data-name="Layer 1">
      <path class="cls-3" d="M101.55,0H11v26.36h90.55V0Z"/>
      <path class="cls-6" d="M101.55,0H11v26.36h90.55V0Z"/>
      <path class="cls-2" d="M96.72,66.13c-5.21-6.64-12.42-11.31-21.63-13.97l-16.4,15.99h-.14c3.27,1.12,6.13,2.59,8.53,4.47,5.94,4.62,8.9,10.25,8.9,16.97,0,6.06-2.21,11.25-6.62,15.46-4.43,4.22-9.99,6.3-16.72,6.3s-11.78-1.85-16-5.59c-4.19-3.71-6.93-9.38-8.17-17.04H0c.89,14.91,5.98,26.69,15.24,35.33,9.26,8.67,21.25,12.99,35.92,12.99,15.52,0,28.29-4.59,38.32-13.79,10.03-9.18,15.03-20.39,15.03-33.62,0-9.01-2.61-16.85-7.77-23.51h-.02Z"/>
      <path class="cls-8" d="M78.86,53.39c7.44,2.78,13.38,7.03,17.86,12.74,5.18,6.66,7.77,14.5,7.77,23.51,0,13.23-4.99,24.44-15.03,33.62-10.03,9.18-22.8,13.79-38.32,13.79-5.6,0-10.79-.63-15.6-1.88v-30.47c.36.37.73.73,1.11,1.07,4.22,3.74,9.57,5.59,16,5.59s12.29-2.08,16.72-6.3c4.4-4.22,6.62-9.38,6.62-15.46,0-6.72-2.95-12.33-8.9-16.97-5.94-4.62-14.53-7-25.72-7.13v-12.08h37.48v-.02Z"/>
      <path class="cls-2" d="M210.78,53.13c-15.34-14.57-33.68-21.85-55.02-21.85-14.08,0-27.25,3.34-39.46,10.01-12.18,6.67-21.77,15.72-28.74,27.1-6.97,11.42-10.48,23.93-10.48,37.5s3.58,26.71,10.72,38.09h32.53c-11.17-9.43-16.73-21.93-16.73-37.52s4.97-27.03,14.93-36.64c9.92-9.6,22.21-14.41,36.81-14.41s26.73,4.93,36.8,14.77c10.11,9.84,15.15,21.87,15.15,36.08s-5,26.27-15.03,36.01c-.61.59-1.22,1.15-1.82,1.71h33.07c6.88-11.08,10.32-23.61,10.32-37.6,0-20.94-7.66-38.69-23.04-53.25Z"/>
      <path class="cls-7" d="M210.78,53.13c-15.34-14.57-33.68-21.85-55.02-21.85-14.08,0-27.25,3.34-39.46,10.01-12.18,6.67-21.77,15.72-28.74,27.1-6.97,11.42-10.48,23.93-10.48,37.5s3.58,26.71,10.72,38.09h32.53c-11.17-9.43-16.73-21.93-16.73-37.52s4.97-27.03,14.93-36.64c9.92-9.6,22.21-14.41,36.81-14.41s26.73,4.93,36.8,14.77c10.11,9.84,15.15,21.87,15.15,36.08s-5,26.27-15.03,36.01c-.61.59-1.22,1.15-1.82,1.71h33.07c6.88-11.08,10.32-23.61,10.32-37.6,0-20.94-7.66-38.69-23.04-53.25Z"/>
      <path class="cls-1" d="M15.93,175.53v2H0v-21.95h15.43v2H2.4v7.81h11.64v1.98H2.4v8.15h13.54v.02Z"/>
      <path class="cls-1" d="M37.95,177.53l-7.26-9.65-7.23,9.65h-2.73l8.55-11.28-8.01-10.65h2.73l6.79,8.96,6.76-8.96h2.57l-7.98,10.6,8.58,11.35h-2.76l-.02-.02Z"/>
      <path class="cls-1" d="M44.71,166.55c0-6.42,5.02-11.16,11.8-11.16,3.28,0,6.24,1.07,8.24,3.2l-1.51,1.47c-1.84-1.81-4.08-2.61-6.66-2.61-5.44,0-9.52,3.88-9.52,9.1s4.08,9.1,9.52,9.1c2.57,0,4.83-.78,6.66-2.63l1.51,1.47c-2,2.13-4.95,3.24-8.27,3.24-6.76,0-11.76-4.73-11.76-11.16v-.02Z"/>
      <path class="cls-1" d="M88.33,175.53v2h-15.92v-21.95h15.43v2h-13.05v7.81h11.64v1.98h-11.64v8.15h13.54v.02Z"/>
      <path class="cls-1" d="M96.5,155.59h2.38v19.94h12.62v2h-15v-21.95.02Z"/>
      <path class="cls-1" d="M118.03,155.59h2.38v19.94h12.62v2h-15v-21.95.02Z"/>
      <path class="cls-1" d="M155.47,175.53v2h-15.92v-21.95h15.43v2h-13.05v7.81h11.64v1.98h-11.64v8.15h13.54v.02Z"/>
      <path class="cls-1" d="M182.46,155.59v21.95h-1.96l-14.48-17.8v17.8h-2.38v-21.95h1.96l14.51,17.8v-17.8h2.35Z"/>
      <path class="cls-1" d="M190.38,166.55c0-6.42,5.02-11.16,11.8-11.16,3.28,0,6.24,1.07,8.24,3.2l-1.51,1.47c-1.84-1.81-4.08-2.61-6.65-2.61-5.44,0-9.52,3.88-9.52,9.1s4.08,9.1,9.52,9.1c2.57,0,4.83-.78,6.65-2.63l1.51,1.47c-2,2.13-4.95,3.24-8.27,3.24-6.76,0-11.76-4.73-11.76-11.16v-.02Z"/>
      <path class="cls-1" d="M234,175.53v2h-15.92v-21.95h15.43v2h-13.05v7.81h11.64v1.98h-11.64v8.15h13.54v.02Z"/>
      <path class="cls-10" d="M123.27,94.82h4v.51h-1.09c-.28,0-.47.14-.56.41l-4.5,10.57v5.64c0,.27.14.41.42.41h2.12v.51h-7.45v-.51h2.12c.28,0,.42-.14.42-.41v-5.67l-5-10.54c-.14-.27-.33-.41-.56-.41h-1.1v-.51h5.61v.51h-1.48l4.5,9.5,4.03-9.5h-1.48v-.51Z"/>
      <path class="cls-10" d="M131.09,112.86v-.51h1.37c.28,0,.42-.14.42-.41v-16.26c0-.24-.14-.34-.42-.34h-1.37v-.51h9.31c1.55,0,2.64-.08,3.27-.25-.17.78-.26,1.86-.26,3.27v1.34h-.68l-.43-2.91c-.03-.42-.31-.63-.82-.63h-6.17v7.82h5.91c.24,0,.37-.14.42-.41l.14-1.78h.52v5.15h-.52l-.14-1.78c-.04-.27-.17-.41-.42-.41h-5.91v7.83h6.59c.5,0,.78-.2.82-.63l.43-3.35h.68v1.34c0,1.68.09,2.91.26,3.69-.63-.17-1.72-.25-3.27-.25h-9.73v-.02Z"/>
      <path class="cls-10" d="M164.82,112.86h-6.03v-.51h1.91l-2.05-5.52h-6.46l-2.05,5.52h1.91v.51h-4.43v-.51h1.1c.28,0,.45-.14.56-.41l6.46-17.12h.99l6.46,17.12c.1.27.28.41.56.41h1.1v.51h-.02ZM155.44,98.19l-2.94,7.83h5.84l-2.9-7.83Z"/>
      <path class="cls-10" d="M181.37,112.25c.29,0,.54-.12.71-.36.19-.24.28-.53.28-.86s-.03-.64-.09-.93l.56-.08c.07.29.12.59.12.95,0,.69-.21,1.24-.62,1.63-.42.41-.97.61-1.63.61-1.67,0-2.5-.98-2.5-2.95s-.26-3.4-.76-4.34c-.5-.93-1.55-1.39-3.11-1.39h-1.91v7.42c0,.27.14.41.42.41h1.96v.51h-6.59v-.51h1.37c.28,0,.42-.14.42-.41v-16.26c0-.24-.14-.34-.42-.34h-1.37v-.51h7.32c1.65,0,3.04.44,4.21,1.32,1.16.88,1.74,2.05,1.74,3.52,0,1.19-.38,2.18-1.13,3-.75.81-1.76,1.37-2.99,1.68,1.39.46,2.28,1.29,2.64,2.46.29.98.43,2.13.43,3.47s.31,2,.94,2l.02-.03ZM175.37,95.61h-2.97v8.08h2.97c1.18,0,2.09-.41,2.75-1.2.66-.8.99-1.74.99-2.83s-.33-2.03-.99-2.83c-.66-.8-1.56-1.2-2.75-1.2v-.02Z"/>
      <path class="cls-10" d="M192.68,113.2c-1.29,0-2.59-.34-3.88-1.03-.43-.2-.73-.32-.89-.32-.29,0-.45.2-.47.61l-.04.41h-.56v-4.78h.52c.17,1.47.75,2.56,1.69,3.25.96.69,2.07,1.05,3.37,1.05s2.29-.34,2.97-1.03c.68-.69,1.01-1.49,1.01-2.44,0-1.49-.89-2.61-2.64-3.39l-3.49-1.53c-1.06-.46-1.84-1.08-2.38-1.88-.52-.8-.8-1.64-.8-2.56,0-1.39.49-2.59,1.44-3.59.95-1,2.34-1.51,4.13-1.51,1.06,0,2.14.34,3.27,1.03.37.2.63.32.76.32.26,0,.4-.2.42-.61l.03-.58h.56v4.95h-.52c-.16-1.47-.64-2.56-1.46-3.25-.82-.69-1.81-1.05-2.97-1.05s-2.07.3-2.71.93c-.64.63-.95,1.32-.95,2.12s.22,1.51.66,2.13c.43.63,1.1,1.14,1.95,1.49l3.53,1.52c1.18.51,2.07,1.19,2.66,2.02.59.83.9,1.73.9,2.68,0,1.35-.56,2.52-1.67,3.52-1.11,1-2.61,1.49-4.47,1.49l.02.02Z"/>
      <path class="cls-9" d="M81.97,143.97h42.9"/>
      <path class="cls-9" d="M184.37,143.97h44.9"/>
      <path class="cls-4" d="M101.57,26.36l-26.48,25.78-16.4,15.99-17.31-2.66v-17.72L90.36,0h11.21v26.36Z"/>
    </g>
  </g>
</svg>